<svg id="Capa_1" enable-background="new 0 0 512 512" height="512" viewBox="0 0 512 512" width="512" xmlns="http://www.w3.org/2000/svg"><g><path d="m512 224.06v255.94h-64l-192-18.05-192 18.05h-64v-255.94l256-18.18z" fill="#813c12"/><path d="m512 224.06v255.94h-64l-192-18.05v-256.07z" fill="#662f0e"/><path d="m448 224.06v255.94h-384v-255.94l192-18.18z" fill="#b5531a"/><path d="m448 224.06v255.94h-192v-274.12z" fill="#813c12"/><path d="m320 224.06v63.9h-128v-63.9l64-18.18z" fill="#fcdb6e"/><path d="m320 224.06v63.9h-64v-82.08z" fill="#fbb36c"/><path d="m361.38 32v75.28h-30v-45.28h-150.76v45.28h-30v-75.28z" fill="#fcdb6e"/><path d="m361.38 32v75.28h-30v-45.28h-75.38v-30z" fill="#fbb36c"/><path d="m462 160.03-14 64.03h-128l-64-18.18-64 18.18h-128l-14-64.03 14-64.03h128l64 11.28 64-11.28h128z" fill="#ce7a1a"/><path d="m462 160.03-14 64.03h-128l-64-18.18v-98.6l64-11.28h128z" fill="#b5531a"/><path d="m448 96.005h64v128.053h-64z" fill="#813c12"/><path d="m192 96h128v128.06h-128z" fill="#b5531a"/><path d="m256 96h64v128.06h-64z" fill="#813c12"/><path d="m241 145.03h30v30h-30z" fill="#fcdb6e"/><path d="m256 145.03h15v30h-15z" fill="#fbb36c"/><path d="m0 96.005h64v128.053h-64z" fill="#b5531a"/></g></svg>