<?xml version="1.0" encoding="iso-8859-1"?>
<!-- Generator: Adobe Illustrator 19.0.0, SVG Export Plug-In . SVG Version: 6.00 Build 0)  -->
<svg version="1.1" id="Capa_1" xmlns="http://www.w3.org/2000/svg" xmlns:xlink="http://www.w3.org/1999/xlink" x="0px" y="0px"
	 viewBox="0 0 480.181 480.181" style="enable-background:new 0 0 480.181 480.181;" xml:space="preserve">
<g>
	<g>
		<path id="SVGCleanerId_0" style="fill:#A2DAE7;" d="M48.091,48.005h48v16h-48V48.005z"/>
	</g>
	<g>
		<path id="SVGCleanerId_1" style="fill:#A2DAE7;" d="M53.115,15.432l5.942-14.856l39.999,15.999l-5.942,14.856L53.115,15.432z"/>
	</g>
	<g>
		<path id="SVGCleanerId_2" style="fill:#A2DAE7;" d="M53.115,96.573l40.005-15.985l5.937,14.858l-40.005,15.985L53.115,96.573z"/>
	</g>
	<g>
		<path id="SVGCleanerId_3" style="fill:#A2DAE7;" d="M384.091,48.005h48v16h-48V48.005z"/>
	</g>
	<g>
		<path id="SVGCleanerId_4" style="fill:#A2DAE7;" d="M381.118,16.569l40.005-15.985l5.937,14.858l-40.005,15.985L381.118,16.569z"
			/>
	</g>
	<g>
		<path id="SVGCleanerId_5" style="fill:#A2DAE7;" d="M381.086,95.465l5.942-14.856l39.999,15.999l-5.942,14.856L381.086,95.465z"/>
	</g>
</g>
<path style="fill:#FDCD74;" d="M288.091,159.349v-39.344h-96v39.344c-84.295,26.51-131.14,116.335-104.63,200.63
	s116.335,131.14,200.63,104.63c84.295-26.51,131.14-116.335,104.63-200.63C377.035,214.102,337.968,175.035,288.091,159.349z
	 M240.091,432.005c-66.274,0-120-53.726-120-120s53.726-120,120-120s120,53.726,120,120S306.365,432.005,240.091,432.005z"/>
<path style="fill:#A2DAE7;" d="M152.091,56.005l32-48h112l32,48l-88,112L152.091,56.005z"/>
<path style="fill:#8DD3E7;" d="M296.091,8.005h-48l32,48l-64,81.456l24,30.544l88-112L296.091,8.005z"/>
<g>
	<path style="fill:#7FC0E6;" d="M328.091,64.005h-176c-4.418,0-8-3.582-8-8s3.582-8,8-8h176c4.418,0,8,3.582,8,8
		S332.509,64.005,328.091,64.005z"/>
	<path style="fill:#7FC0E6;" d="M272.091,64.005c-2.674,0-5.172-1.335-6.656-3.56l-25.344-38.04l-25.344,38.04
		c-1.557,2.404-4.304,3.764-7.16,3.544c-2.846-0.178-5.381-1.858-6.656-4.408l-24-48c-1.975-3.954-0.37-8.761,3.584-10.736
		s8.761-0.37,10.736,3.584l0,0l17.832,35.672l24.352-36.536c2.75-3.676,7.959-4.427,11.635-1.677
		c0.636,0.476,1.201,1.041,1.677,1.677l24.352,36.536l17.792-35.672c1.975-3.954,6.782-5.559,10.736-3.584
		c3.954,1.975,5.559,6.782,3.584,10.736l0,0l-24,48c-1.276,2.553-3.815,4.233-6.664,4.408
		C272.419,64.005,272.259,64.005,272.091,64.005z"/>
	<path style="fill:#7FC0E6;" d="M240.091,165.805c-3.573,0.002-6.714-2.365-7.696-5.8l-32-101.8
		c-1.215-4.25,1.246-8.681,5.496-9.896c4.25-1.215,8.681,1.246,9.896,5.496l24.304,85.08l24.304-85.08
		c1.215-4.25,5.646-6.711,9.896-5.496c4.25,1.215,6.711,5.646,5.496,9.896l0,0l-32,101.8
		C246.804,163.44,243.663,165.807,240.091,165.805z"/>
</g>
<path style="fill:#FDC05E;" d="M356.779,202.725c-5.031,14.19-10.938,28.054-17.688,41.512
	c37.461,54.623,23.549,129.272-31.074,166.733c-46.904,32.167-109.952,26.966-150.95-12.453
	c-14.302,4.559-28.871,8.236-43.624,11.008c53.797,70.008,154.161,83.149,224.168,29.352s83.149-154.161,29.352-224.168
	C363.767,210.55,360.368,206.55,356.779,202.725L356.779,202.725z"/>
<path d="M112.091,312.005c0,70.692,57.308,128,128,128s128-57.308,128-128s-57.308-128-128-128
	C169.433,184.089,112.174,241.347,112.091,312.005z M352.091,312.005c0,61.856-50.144,112-112,112s-112-50.144-112-112
	s50.144-112,112-112C301.919,200.071,352.024,250.177,352.091,312.005z"/>
<path id="SVGCleanerId_0_1_" d="M48.091,48.005h48v16h-48V48.005z"/>
<path id="SVGCleanerId_1_1_" d="M53.115,15.432l5.942-14.856l39.999,15.999l-5.942,14.856L53.115,15.432z"/>
<path id="SVGCleanerId_2_1_" d="M53.115,96.573l40.005-15.985l5.937,14.858l-40.005,15.985L53.115,96.573z"/>
<path id="SVGCleanerId_3_1_" d="M384.091,48.005h48v16h-48V48.005z"/>
<path id="SVGCleanerId_4_1_" d="M381.118,16.569l40.005-15.985l5.937,14.858l-40.005,15.985L381.118,16.569z"/>
<path id="SVGCleanerId_5_1_" d="M381.086,95.465l5.942-14.856l39.999,15.999l-5.942,14.856L381.086,95.465z"/>
<path d="M176.091,112.005v44.8C90.303,192.151,49.412,290.35,84.759,376.137s133.544,126.678,219.332,91.332
	s126.678-133.544,91.332-219.332c-17.057-41.398-49.934-74.275-91.332-91.332v-44.8c-0.026-2.958-1.694-5.655-4.328-7l34.616-44.056
	c0.136-0.176,0.2-0.376,0.32-0.56c0.161-0.194,0.31-0.397,0.448-0.608c0.072-0.136,0.096-0.288,0.16-0.432
	c0.137-0.312,0.255-0.633,0.352-0.96c0.121-0.366,0.215-0.74,0.28-1.12c0.049-0.331,0.079-0.665,0.088-1
	c0.028-0.381,0.028-0.763,0-1.144c-0.037-0.337-0.099-0.672-0.184-1c-0.089-0.379-0.207-0.751-0.352-1.112
	c-0.072-0.168-0.088-0.344-0.168-0.504s-0.2-0.28-0.288-0.44s-0.144-0.344-0.248-0.504l-32-48c-0.19-0.246-0.393-0.481-0.608-0.704
	c-0.198-0.251-0.409-0.491-0.632-0.72c-0.331-0.297-0.687-0.564-1.064-0.8c-0.184-0.12-0.352-0.272-0.552-0.376
	c-0.378-0.19-0.771-0.348-1.176-0.472c-0.256-0.088-0.496-0.2-0.8-0.264c-0.338-0.067-0.68-0.11-1.024-0.128
	c-0.278-0.048-0.558-0.08-0.84-0.096h-112c-0.28,0-0.536,0.08-0.8,0.104c-0.357,0.021-0.713,0.066-1.064,0.136
	c-0.248,0.064-0.48,0.168-0.728,0.248c-0.413,0.129-0.814,0.293-1.2,0.488c-0.192,0.104-0.352,0.24-0.536,0.36
	c-0.383,0.234-0.745,0.502-1.08,0.8c-0.222,0.222-0.428,0.46-0.616,0.712c-0.223,0.224-0.431,0.462-0.624,0.712l-32,48
	c-0.104,0.16-0.152,0.344-0.248,0.504s-0.216,0.28-0.288,0.44s-0.096,0.336-0.168,0.504c-0.145,0.361-0.263,0.733-0.352,1.112
	c-0.085,0.328-0.147,0.663-0.184,1c-0.041,0.38-0.055,0.762-0.04,1.144c0.009,0.335,0.039,0.669,0.088,1
	c0.065,0.38,0.159,0.754,0.28,1.12c0.097,0.327,0.215,0.648,0.352,0.96c0.064,0.144,0.088,0.296,0.16,0.432
	c0.138,0.211,0.287,0.414,0.448,0.608c0.12,0.184,0.184,0.384,0.32,0.56l34.616,44.056
	C177.789,106.347,176.118,109.046,176.091,112.005L176.091,112.005z M392.091,312.005c0.031,83.947-67.997,152.025-151.944,152.056
	c-83.947,0.031-152.025-67.997-152.056-151.944c-0.024-65.279,41.636-123.284,103.504-144.112h96.992
	C350.485,188.725,392.178,246.731,392.091,312.005z M192.091,152.005v-32l25.248,32H192.091z M257.147,48.005h-34.112l17.056-25.6
	L257.147,48.005z M261.483,64.005l-2.216,7.76l-19.176,67.112l-8.304-29.072l-13.088-45.8L261.483,64.005z M262.843,152.005
	l25.136-32l0.112,32H262.843z M258.987,131.013l19.144-67.008h33.496L258.987,131.013z M285.035,48.005l12.048-24.096l16.064,24.096
	H285.035z M271.099,40.093l-16.064-24.088h28.112L271.099,40.093z M225.147,16.005l-16.064,24.088l-12.048-24.088H225.147z
	 M183.099,23.909l12.048,24.096h-28.112L183.099,23.909z M202.051,64.005l19.144,67.008l-52.64-67.008L202.051,64.005z"/>
<g>
</g>
<g>
</g>
<g>
</g>
<g>
</g>
<g>
</g>
<g>
</g>
<g>
</g>
<g>
</g>
<g>
</g>
<g>
</g>
<g>
</g>
<g>
</g>
<g>
</g>
<g>
</g>
<g>
</g>
</svg>
